<svg viewBox="0 0 188 135" style="background-color:#ffffff00" xmlns="http://www.w3.org/2000/svg" width="188" height="135"><path d="M151.676 132.914H25.445l4.862-17.8-28.25-65.19h40.99l12.657-46.98h130.592l-34.62 129.97z"/><path d="M151.676 131.239H25.445l1.618 2.12 4.863-17.8c.284-1.04-.81-2.77-1.207-3.687A1302153.97 1302153.97 0 0 0 7.314 57.864L3.505 49.08l-1.45 2.52h40.991c.743 0 1.425-.511 1.619-1.23L57.322 3.39l-1.619 1.23h130.593l-1.619-2.12a3641735.352 3641735.352 0 0 0-34.62 129.969c-.557 2.09 2.681 2.977 3.237.89l20.026-75.178 14.594-54.79c.28-1.052-.52-2.12-1.619-2.12H55.702c-.742 0-1.424.51-1.618 1.23-4.22 15.659-8.438 31.32-12.656 46.98l1.619-1.23H2.057c-1.389 0-1.937 1.397-1.45 2.52L15.73 85.668l9.781 22.57 2.786 6.427.524 1.21c.251.579.024-1.78-.182-1.02l-.456 1.665-4.357 15.95c-.287 1.05.525 2.12 1.619 2.12h126.231c2.166-.001 2.166-3.351 0-3.351z" fill="#fff"/><path opacity=".6" d="M36.343 108.457h34.89L49.63 58.776H14.75l21.592 49.68z" fill="#ffdd16"/><path d="M71.233 108.457h-34.89l25.873-96.624h34.89l-25.873 96.624z" fill="#ffdd16"/><path opacity=".6" d="M149.088 108.457H79.427l5.6-20.915h69.7l-5.639 20.915z" fill="#ffdd16"/><path d="M132.114 41.797l8.023-29.964-34.786-.037L87.32 78.69h34.962l-8.017 29.767h34.967l17.66-66.712-34.777.052z" fill="#ffdd16"/><path opacity=".6" d="M169.415 32.893H99.774l5.676-21.06h69.595l-5.63 21.06z" fill="#ffdd16"/><path d="M63.567 115.111h4.311c.55 0 1.037.064 1.46.191.424.13.766.317 1.024.567.259.25.43.562.513.933.083.373.059.808-.073 1.309a3.355 3.355 0 0 1-.373.908c-.154.25-.303.457-.446.625a3.08 3.08 0 0 1-.546.5c.2.154.37.354.502.599.11.21.19.478.244.8.051.322.016.716-.107 1.182a4.561 4.561 0 0 1-.664 1.451 4.562 4.562 0 0 1-1.095 1.107 4.875 4.875 0 0 1-1.458.7 6.139 6.139 0 0 1-1.74.242h-4.494l2.942-11.114zm1.55 8.498c.836 0 1.34-.323 1.511-.966.17-.644-.163-.968-1-.968l-.397.001-.51 1.933h.395zm2.18-5.116c.136-.51-.072-.766-.622-.766h-.397l-.406 1.533h.396c.55 0 .894-.257 1.03-.767zm5.537-3.381h3.8c.705 0 1.333.094 1.883.282.551.19.998.467 1.34.835.344.366.57.819.674 1.357.105.54.065 1.158-.12 1.858-.147.556-.349 1.027-.606 1.416a6.256 6.256 0 0 1-.768.966 5.31 5.31 0 0 1-.938.733l1.096 3.666h-4.13l-.907-2.816-.746 2.816-3.519-.002 2.941-11.111zm2.073 5.465h.181c.42 0 .8-.094 1.141-.283.343-.188.572-.505.69-.95.117-.444.055-.76-.187-.95-.242-.188-.572-.282-.99-.282h-.183l-.652 2.465zm11.574-5.464h2.643l1.239 11.112h-3.47l-.1-1h-3.337l-.627 1h-3.47l7.122-11.112zm.035 7.664l-.226-1.95-1.26 1.95h1.486zm10.013-4.748h-3.04l1.896-2.916h7.054l-6.003 8.197 3.618.001-1.88 2.916-7.648-.001 6.003-8.197zm6.405-2.916h3.735l-2.943 11.114h-3.732l2.94-11.114zm4.891.001h3.667l-2.17 8.197h3.04l-.771 2.916h-6.708l2.942-11.113zm5.131 8.447h1.205c.353 0 .608-.067.765-.199.156-.133.266-.322.331-.567l2.033-7.68h3.635l-2.196 8.297c-.274 1.033-.7 1.76-1.28 2.182-.58.424-1.382.634-2.406.634l-2.792-.001.704-2.666zm6.75-.783c.221.08.459.14.71.183.207.058.446.102.718.135.272.034.55.05.838.05.506 0 .81-.19.91-.567.038-.145 0-.291-.115-.441a4.886 4.886 0 0 0-.454-.5 19.588 19.588 0 0 1-.6-.609 3.686 3.686 0 0 1-.556-.766 2.99 2.99 0 0 1-.328-.975c-.058-.36-.026-.775.096-1.241a4.053 4.053 0 0 1 1.69-2.382c.4-.268.841-.47 1.325-.61a5.31 5.31 0 0 1 1.484-.207c.264 0 .525.013.782.041.256.029.486.052.69.075l.684.1-.826 3.116a9.005 9.005 0 0 0-.288-.033 9.352 9.352 0 0 0-.29-.034 3.088 3.088 0 0 0-.591-.007c-.1.005-.198.018-.292.04a.761.761 0 0 0-.262.117.392.392 0 0 0-.161.233c-.023.09.022.2.135.335.114.132.253.288.421.465.168.178.351.383.548.616.196.235.362.501.498.8.135.301.229.64.277 1.017.048.377.011.8-.113 1.266a4.98 4.98 0 0 1-.594 1.375c-.268.428-.606.8-1.015 1.117a4.773 4.773 0 0 1-1.445.75 6.001 6.001 0 0 1-1.873.274c-.42 0-.803-.019-1.15-.058a9.421 9.421 0 0 1-.914-.143 6.907 6.907 0 0 1-.822-.2l.883-3.332z" fill="#fff"/></svg>