<?xml version="1.0" encoding="UTF-8" standalone="no"?>
<!-- Generator: Adobe Illustrator 16.0.0, SVG Export Plug-In . SVG Version: 6.00 Build 0)  -->

<svg
   xmlns:dc="http://purl.org/dc/elements/1.1/"
   xmlns:cc="http://creativecommons.org/ns#"
   xmlns:rdf="http://www.w3.org/1999/02/22-rdf-syntax-ns#"
   xmlns:svg="http://www.w3.org/2000/svg"
   xmlns="http://www.w3.org/2000/svg"
   xmlns:sodipodi="http://sodipodi.sourceforge.net/DTD/sodipodi-0.dtd"
   xmlns:inkscape="http://www.inkscape.org/namespaces/inkscape"
   version="1.1"
   id="Camada_1"
   x="0px"
   y="0px"
   width="740.96198"
   height="251.302"
   viewBox="0 0 740.96196 251.30199"
   enable-background="new 0 0 841.89 595.28"
   xml:space="preserve"
   inkscape:version="0.48.5 r10040"
   sodipodi:docname="logo-tdc-horizontal.svg"><metadata
     id="metadata261"><rdf:RDF><cc:Work
         rdf:about=""><dc:format>image/svg+xml</dc:format><dc:type
           rdf:resource="http://purl.org/dc/dcmitype/StillImage" /></cc:Work></rdf:RDF></metadata><defs
     id="defs259" /><sodipodi:namedview
     pagecolor="#ffffff"
     bordercolor="#666666"
     borderopacity="1"
     objecttolerance="10"
     gridtolerance="10"
     guidetolerance="10"
     inkscape:pageopacity="0"
     inkscape:pageshadow="2"
     inkscape:window-width="1232"
     inkscape:window-height="1003"
     id="namedview257"
     showgrid="false"
     fit-margin-top="0"
     fit-margin-left="0"
     fit-margin-right="0"
     fit-margin-bottom="0"
     inkscape:zoom="1.2061403"
     inkscape:cx="370.48201"
     inkscape:cy="125.651"
     inkscape:window-x="48"
     inkscape:window-y="21"
     inkscape:window-maximized="1"
     inkscape:current-layer="Camada_1" /><g
     id="g3"
     transform="translate(-50.463001,-171.98901)"><g
       id="g5"><g
         id="g7"><g
           id="g9"><g
             id="g11"><g
               id="g13"><path
                 d="M 136.343,202.979 H 245.66 L 300.311,297.713 245.66,392.3 H 136.343 l -54.654,-94.684 54.654,-94.637 z m 104.607,7.811 -99.979,0.026 -49.989,86.853 50.034,86.778 100.079,0.111 49.881,-86.972 -50.026,-86.796 z"
                 id="path15"
                 inkscape:connector-curvature="0" /></g></g></g><g
           id="g17"><g
             id="g19"><g
               id="g21"><g
                 id="g23"><g
                   id="g25"><polygon
                     points="208.458,273.704 222.23,297.517 208.444,321.58 194.82,297.334 "
                     id="polygon27"
                     style="fill:#009a44" /></g></g><g
                 id="g29"><g
                   id="g31"><polygon
                     points="222.865,248.752 236.686,272.672 223.545,295.433 209.711,271.532 "
                     id="polygon33"
                     style="fill:#009a44" /></g></g><g
                 id="g35"><g
                   id="g37"><polygon
                     points="223.457,299.626 237.199,323.382 223.063,347.852 209.711,323.349 "
                     id="polygon39"
                     style="fill:#009a44" /></g></g><g
                 id="g41"><g
                   id="g43"><polygon
                     points="237.879,274.756 251.58,298.479 238.455,321.194 224.712,297.464 "
                     id="polygon45"
                     style="fill:#009a44" /></g></g></g><g
               id="g47"><g
                 id="g49"><g
                   id="g51"><polygon
                     points="238.425,325.484 251.58,348.353 237.808,372.432 224.549,349.467 "
                     id="polygon53"
                     style="fill:#004f8b" /></g></g><g
                 id="g55"><g
                   id="g57"><polygon
                     points="252.806,300.614 266.104,323.423 252.926,346.184 239.684,323.319 "
                     id="polygon59"
                     style="fill:#004f8b" /></g></g><g
                 id="g61"><g
                   id="g63"><polygon
                     points="237.875,222.753 251.625,246.792 237.965,270.451 224.177,246.479 "
                     id="polygon65"
                     style="fill:#004f8b" /></g></g><g
                 id="g67"><g
                   id="g69"><polygon
                     points="252.859,248.927 266.541,272.613 252.829,296.309 239.138,272.583 "
                     id="polygon71"
                     style="fill:#004f8b" /></g></g><g
                 id="g73"><g
                   id="g75"><polygon
                     points="267.908,274.796 280.61,297.64 267.34,321.299 254.066,298.452 "
                     id="polygon77"
                     style="fill:#004f8b" /></g></g></g></g><g
             id="g79"><g
               id="g81"><g
                 id="g83"><g
                   id="g85"><polygon
                     points="175.175,324.712 161.437,300.93 188.974,300.93 202.709,324.712 "
                     id="polygon87"
                     style="fill:#0c99d6" /></g></g><g
                 id="g89"><g
                   id="g91"><polygon
                     points="190.073,350.525 176.435,326.892 204.038,327.007 217.618,350.525 "
                     id="polygon93"
                     style="fill:#0c99d6" /></g></g><g
                 id="g95"><g
                   id="g97"><polygon
                     points="160.76,350.525 147.126,326.892 173.987,326.892 187.596,350.56 "
                     id="polygon99"
                     style="fill:#0c99d6" /></g></g><g
                 id="g101"><g
                   id="g103"><polygon
                     points="145.866,324.712 132.232,300.93 158.941,300.93 172.676,324.712 "
                     id="polygon105"
                     style="fill:#0c99d6" /></g></g></g><g
               id="g107"><g
                 id="g109"><g
                   id="g111"><polygon
                     points="204.618,375.709 191.358,352.735 218.895,352.735 232.152,375.709 "
                     id="polygon113"
                     style="fill:#44283b" /></g></g><g
                 id="g115"><g
                   id="g117"><polygon
                     points="175.283,375.709 162.039,352.735 188.847,352.735 202.107,375.709 "
                     id="polygon119"
                     style="fill:#44283b" /></g></g><g
                 id="g121"><g
                   id="g123"><polygon
                     points="131.277,350.56 117.608,326.892 144.704,326.892 158.328,350.56 "
                     id="polygon125"
                     style="fill:#44283b" /></g></g><g
                 id="g127"><g
                   id="g129"><polygon
                     points="145.799,375.709 132.533,352.735 159.653,352.735 172.802,375.709 "
                     id="polygon131"
                     style="fill:#44283b" /></g></g><g
                 id="g133"><g
                   id="g135"><polygon
                     points="116.354,324.712 102.622,300.93 129.754,300.93 143.453,324.712 "
                     id="polygon137"
                     style="fill:#44283b" /></g></g></g></g><g
             id="g139"><g
               id="g141"><g
                 id="g143"><g
                   id="g145"><polygon
                     points="161.317,294.63 175.275,270.451 203.255,270.451 189.108,294.623 "
                     id="polygon147"
                     style="fill:#e9540d" /></g></g><g
                 id="g149"><g
                   id="g151"><polygon
                     points="176.531,268.274 189.68,245.492 217.009,245.492 204.046,268.274 "
                     id="polygon153"
                     style="fill:#e9540d" /></g></g><g
                 id="g155"><g
                   id="g157"><polygon
                     points="147.304,268.274 160.456,245.492 187.168,245.492 174.005,268.364 "
                     id="polygon159"
                     style="fill:#e9540d" /></g></g><g
                 id="g161"><g
                   id="g163"><polygon
                     points="132.232,294.385 146.044,270.451 172.757,270.451 158.941,294.385 "
                     id="polygon165"
                     style="fill:#e9540d" /></g></g></g><g
               id="g167"><g
                 id="g169"><g
                   id="g171"><polygon
                     points="190.935,243.319 204.633,219.596 232.152,219.596 218.458,243.319 "
                     id="polygon173"
                     style="fill:#e4032d" /></g></g><g
                 id="g175"><g
                   id="g177"><polygon
                     points="161.712,243.319 175.405,219.596 202.122,219.596 188.424,243.319 "
                     id="polygon179"
                     style="fill:#e4032d" /></g></g><g
                 id="g181"><g
                   id="g183"><polygon
                     points="117.698,268.274 130.846,245.492 157.878,245.492 144.797,268.274 "
                     id="polygon185"
                     style="fill:#e4032d" /></g></g><g
                 id="g187"><g
                   id="g189"><g
                     id="g191"><polygon
                       points="132.102,243.319 145.799,219.596 172.78,219.596 159.494,243.319 "
                       id="polygon193"
                       style="fill:#e4032d" /></g></g></g><g
                 id="g195"><g
                   id="g197"><polygon
                     points="102.622,294.385 116.436,270.451 143.53,270.451 129.714,294.385 "
                     id="polygon199"
                     style="fill:#e4032d" /></g></g></g></g></g></g><g
         id="g201"><path
           d="m 347.393,208.693 h -15.827 v -5.712 h 38.518 v 5.712 h -15.897 v 46.314 h -6.793 v -46.314 z"
           id="path203"
           inkscape:connector-curvature="0" /><path
           d="m 382.584,202.98 v 21.771 h 25.161 V 202.98 h 6.793 v 52.026 h -6.793 v -24.395 h -25.161 v 24.395 h -6.715 V 202.98 h 6.715 z"
           id="path205"
           inkscape:connector-curvature="0" /><path
           d="m 453.121,230.612 h -20.225 v 18.756 h 22.539 v 5.638 H 426.181 V 202.98 h 28.098 v 5.635 h -21.383 v 16.44 h 20.225 v 5.557 z"
           id="path207"
           inkscape:connector-curvature="0" /></g><g
         id="g209"><path
           d="m 331.565,269.986 c 4.09,-0.617 8.955,-1.077 14.282,-1.077 9.645,0 16.512,2.236 21.066,6.481 4.636,4.245 7.335,10.266 7.335,18.679 0,8.491 -2.626,15.437 -7.488,20.225 -4.862,4.861 -12.892,7.487 -23.001,7.487 -4.784,0 -8.8,-0.234 -12.194,-0.62 v -51.175 z m 6.717,46.005 c 1.697,0.308 4.167,0.386 6.793,0.386 14.355,0 22.152,-8.026 22.152,-22.073 0.073,-12.276 -6.872,-20.072 -21.075,-20.072 -3.468,0 -6.094,0.312 -7.87,0.695 v 41.064 z"
           id="path211"
           inkscape:connector-curvature="0" /><path
           d="m 409.903,296.926 h -20.225 v 18.757 h 22.538 v 5.634 h -29.253 v -52.024 h 28.094 v 5.634 h -21.379 v 16.443 h 20.225 v 5.556 z"
           id="path213"
           inkscape:connector-curvature="0" /><path
           d="m 433.049,321.316 -16.98,-52.024 h 7.253 l 8.104,25.628 c 2.24,7.023 4.172,13.352 5.561,19.451 h 0.152 c 1.469,-6.021 3.629,-12.583 5.943,-19.373 l 8.799,-25.706 h 7.18 l -18.605,52.024 h -7.407 z"
           id="path215"
           inkscape:connector-curvature="0" /><path
           d="m 491.623,296.926 h -20.221 v 18.757 h 22.537 v 5.634 h -29.252 v -52.024 h 28.094 v 5.634 h -21.379 v 16.443 h 20.221 v 5.556 z"
           id="path217"
           inkscape:connector-curvature="0" /><path
           d="m 502.654,269.292 h 6.715 v 46.391 h 22.232 v 5.634 h -28.947 v -52.025 z"
           id="path219"
           inkscape:connector-curvature="0" /><path
           d="m 580.533,294.764 c 0,17.91 -10.887,27.404 -24.16,27.404 -13.74,0 -23.389,-10.653 -23.389,-26.401 0,-16.517 10.266,-27.321 24.156,-27.321 14.204,-0.001 23.393,10.882 23.393,26.318 z m -40.369,0.85 c 0,11.113 6.021,21.071 16.594,21.071 10.65,0 16.674,-9.803 16.674,-21.613 0,-10.34 -5.404,-21.148 -16.596,-21.148 -11.117,0 -16.672,10.266 -16.672,21.69 z"
           id="path221"
           inkscape:connector-curvature="0" /><path
           d="m 589.248,269.913 c 3.236,-0.543 7.482,-1.003 12.887,-1.003 6.639,0 11.5,1.542 14.59,4.32 2.852,2.47 4.555,6.255 4.555,10.883 0,4.709 -1.391,8.417 -4.016,11.117 -3.551,3.78 -9.342,5.712 -15.9,5.712 -2.006,0 -3.859,-0.077 -5.4,-0.464 v 20.84 h -6.715 v -51.405 z m 6.715,25.085 c 1.463,0.383 3.316,0.539 5.555,0.539 8.105,0 13.045,-3.937 13.045,-11.113 0,-6.871 -4.865,-10.192 -12.271,-10.192 -2.934,0 -5.174,0.234 -6.328,0.542 v 20.224 z"
           id="path223"
           inkscape:connector-curvature="0" /><path
           d="M 657.238,296.926 H 637.02 v 18.757 h 22.537 v 5.634 h -29.252 v -52.024 h 28.094 v 5.634 H 637.02 v 16.443 h 20.219 v 5.556 z"
           id="path225"
           inkscape:connector-curvature="0" /><path
           d="m 668.271,269.986 c 3.393,-0.694 8.26,-1.077 12.887,-1.077 7.18,0 11.813,1.312 15.051,4.246 2.625,2.313 4.092,5.864 4.092,9.879 0,6.867 -4.322,11.421 -9.801,13.274 v 0.23 c 4.016,1.39 6.406,5.097 7.641,10.497 1.699,7.258 2.934,12.275 4.016,14.28 h -6.951 c -0.846,-1.467 -2.004,-5.942 -3.469,-12.427 -1.545,-7.177 -4.322,-9.881 -10.422,-10.11 h -6.328 v 22.537 h -6.715 v -51.329 z m 6.715,23.698 h 6.871 c 7.174,0 11.729,-3.937 11.729,-9.88 0,-6.715 -4.861,-9.646 -11.963,-9.723 -3.242,0 -5.557,0.308 -6.637,0.616 v 18.987 z"
           id="path227"
           inkscape:connector-curvature="0" /><path
           d="m 718.82,268.445 c -1.775,6.481 -5.096,14.742 -7.256,18.292 l -4.324,0.539 c 1.701,-4.554 3.705,-12.58 4.555,-18.137 l 7.025,-0.694 z"
           id="path229"
           inkscape:connector-curvature="0" /><path
           d="m 724.912,313.135 c 3.014,1.854 7.414,3.398 12.041,3.398 6.873,0 10.883,-3.629 10.883,-8.877 0,-4.861 -2.777,-7.644 -9.799,-10.345 -8.49,-3.008 -13.742,-7.41 -13.742,-14.741 0,-8.104 6.715,-14.125 16.826,-14.125 5.326,0 9.189,1.233 11.502,2.548 l -1.852,5.478 c -1.697,-0.924 -5.17,-2.47 -9.881,-2.47 -7.102,0 -9.801,4.246 -9.801,7.796 0,4.862 3.164,7.254 10.344,10.036 8.799,3.395 13.273,7.64 13.273,15.281 0,8.025 -5.941,14.976 -18.215,14.976 -5.018,0 -10.494,-1.467 -13.273,-3.321 l 1.694,-5.634 z"
           id="path231"
           inkscape:connector-curvature="0" /></g><g
         id="g233"><path
           d="m 371.007,389.752 c -2.471,1.231 -7.411,2.474 -13.74,2.474 -14.664,0 -25.702,-9.264 -25.702,-26.326 0,-16.284 11.039,-27.322 27.167,-27.322 6.484,0 10.578,1.39 12.353,2.317 l -1.623,5.482 c -2.544,-1.24 -6.177,-2.161 -10.497,-2.161 -12.193,0 -20.298,7.792 -20.298,21.453 0,12.739 7.331,20.918 19.99,20.918 4.09,0 8.261,-0.847 10.96,-2.162 l 1.39,5.327 z"
           id="path235"
           inkscape:connector-curvature="0" /><path
           d="m 422.252,364.896 c 0,17.911 -10.886,27.404 -24.161,27.404 -13.74,0 -23.389,-10.652 -23.389,-26.4 0,-16.514 10.267,-27.322 24.158,-27.322 14.203,-10e-4 23.392,10.881 23.392,26.318 z m -40.37,0.854 c 0,11.113 6.021,21.067 16.595,21.067 10.65,0 16.674,-9.799 16.674,-21.61 0,-10.34 -5.405,-21.148 -16.596,-21.148 -11.117,0 -16.673,10.266 -16.673,21.691 z"
           id="path237"
           inkscape:connector-curvature="0" /><path
           d="m 430.967,391.452 v -52.028 h 7.33 l 16.67,26.326 c 3.863,6.099 6.871,11.573 9.34,16.899 l 0.154,-0.073 c -0.617,-6.947 -0.773,-13.275 -0.773,-21.38 v -21.772 h 6.33 v 52.028 h -6.789 l -16.518,-26.4 c -3.629,-5.787 -7.102,-11.729 -9.729,-17.367 l -0.23,0.081 c 0.387,6.56 0.543,12.814 0.543,21.453 v 22.233 h -6.328 z"
           id="path239"
           inkscape:connector-curvature="0" /><path
           d="m 481.742,339.424 h 28.018 v 5.638 h -21.301 v 17.286 h 19.682 v 5.563 h -19.682 v 23.541 h -6.717 v -52.028 z"
           id="path241"
           inkscape:connector-curvature="0" /><path
           d="m 546.262,367.058 h -20.221 v 18.756 h 22.539 v 5.639 h -29.254 v -52.028 h 28.096 v 5.638 h -21.381 v 16.439 h 20.221 v 5.556 z"
           id="path243"
           inkscape:connector-curvature="0" /><path
           d="m 557.293,340.122 c 3.398,-0.698 8.26,-1.077 12.893,-1.077 7.18,0 11.807,1.308 15.049,4.241 2.627,2.317 4.09,5.869 4.09,9.88 0,6.871 -4.32,11.426 -9.799,13.275 v 0.23 c 4.014,1.389 6.404,5.095 7.639,10.496 1.701,7.257 2.932,12.278 4.02,14.284 h -6.951 c -0.852,-1.471 -2.01,-5.941 -3.473,-12.428 -1.545,-7.176 -4.324,-9.88 -10.422,-10.11 h -6.33 v 22.538 h -6.715 v -51.329 z m 6.715,23.697 h 6.873 c 7.176,0 11.729,-3.938 11.729,-9.881 0,-6.715 -4.857,-9.649 -11.959,-9.723 -3.248,0 -5.557,0.304 -6.643,0.616 v 18.988 z"
           id="path245"
           inkscape:connector-curvature="0" /><path
           d="m 625.754,367.058 h -20.223 v 18.756 h 22.537 v 5.639 h -29.254 v -52.028 h 28.096 v 5.638 h -21.379 v 16.439 h 20.223 v 5.556 z"
           id="path247"
           inkscape:connector-curvature="0" /><path
           d="m 636.785,391.452 v -52.028 h 7.332 l 16.668,26.326 c 3.863,6.099 6.873,11.573 9.342,16.899 l 0.152,-0.073 c -0.615,-6.947 -0.771,-13.275 -0.771,-21.38 v -21.772 h 6.328 v 52.028 h -6.789 l -16.518,-26.4 c -3.629,-5.787 -7.102,-11.729 -9.727,-17.367 l -0.23,0.081 c 0.385,6.56 0.543,12.814 0.543,21.453 v 22.233 h -6.33 z"
           id="path249"
           inkscape:connector-curvature="0" /><path
           d="m 723.918,389.752 c -2.471,1.231 -7.412,2.474 -13.74,2.474 -14.664,0 -25.703,-9.264 -25.703,-26.326 0,-16.284 11.039,-27.322 27.166,-27.322 6.486,0 10.578,1.39 12.354,2.317 l -1.621,5.482 c -2.547,-1.24 -6.178,-2.161 -10.498,-2.161 -12.193,0 -20.297,7.792 -20.297,21.453 0,12.739 7.33,20.918 19.988,20.918 4.09,0 8.26,-0.847 10.961,-2.162 l 1.39,5.327 z"
           id="path251"
           inkscape:connector-curvature="0" /><path
           d="m 759.258,367.058 h -20.221 v 18.756 h 22.537 v 5.639 h -29.252 v -52.028 h 28.094 v 5.638 h -21.379 v 16.439 h 20.221 v 5.556 z"
           id="path253"
           inkscape:connector-curvature="0" /></g></g><rect
       x="50.463001"
       y="171.989"
       width="740.96198"
       height="251.302"
       id="rect255"
       style="fill:none" /></g></svg>